<?xml version="1.0" encoding="iso-8859-1"?>
<!-- Generator: Adobe Illustrator 16.0.0, SVG Export Plug-In . SVG Version: 6.00 Build 0)  -->
<!DOCTYPE svg PUBLIC "-//W3C//DTD SVG 1.1//EN" "http://www.w3.org/Graphics/SVG/1.1/DTD/svg11.dtd">
<svg version="1.1" id="Capa_1" xmlns="http://www.w3.org/2000/svg" xmlns:xlink="http://www.w3.org/1999/xlink" x="0px" y="0px"
	 width="49.6px" height="49.6px" viewBox="0 0 49.6 49.6" style="enable-background:new 0 0 49.6 49.6;" xml:space="preserve">
<g>
	<path d="M26.661,45.928v-2.283h6.916v-3.67h-6.916v-2.268h3.313v-3.67h-3.313V20.188h0.905v-2.525h0.331
		c4.87,0,8.832-3.962,8.832-8.832S32.768,0,27.897,0h-6.254c-4.87,0-8.832,3.962-8.832,8.832s3.962,8.832,8.832,8.832h1.006v2.525
		h1.011V45.93v2.879V49.6h13.127v-3.67H26.661V45.928z M15.812,8.832C15.812,5.616,18.428,3,21.644,3h6.254
		c3.216,0,5.832,2.616,5.832,5.832s-2.616,5.832-5.832,5.832h-6.254C18.428,14.663,15.812,12.047,15.812,8.832z"/>
</g>
<g>
</g>
<g>
</g>
<g>
</g>
<g>
</g>
<g>
</g>
<g>
</g>
<g>
</g>
<g>
</g>
<g>
</g>
<g>
</g>
<g>
</g>
<g>
</g>
<g>
</g>
<g>
</g>
<g>
</g>
</svg>
